<svg id="Layer_1" data-name="Layer 1" xmlns="http://www.w3.org/2000/svg" viewBox="0 0 1927.15 460.99"><defs><style>.cls-1{fill:#10ac84;}.cls-2{fill:#494948;}</style></defs><title>innospace_logo_greengrey_notext</title><path class="cls-1" d="M35.45,2.41C19.15,7.71,7.85,19,2.15,35.61c-3.1,8.9-2.8,23.5.6,32.2,7.3,18.3,19.9,29,38.9,32.9,10.9,2.2,21,.8,31.5-4.4,8.1-3.9,17.4-12.3,20.5-18.3a27.17,27.17,0,0,1,3.3-5.3c1.4-1.6,42.7-1.7,841.2-1.7,753.5,0,840.6.2,848.6,1.5,45.6,8,85.1,42.3,99.8,86.5,6.4,19.3,6,10.6,6.3,144.2l0.4,121.8h-815.1v34h849V322.41c0-117.6-.2-138.1-1.5-147.3-8.8-60.5-50.1-110.3-108.3-130.5-5.7-2-14.7-4.6-20-5.8l-9.7-2.3-842.9-.2c-625.5-.2-843.3-0.6-844.3-1.4a54,54,0,0,1-5-8.1A50.61,50.61,0,0,0,35.45,2.41Z" transform="translate(0 -0.02)"/><path class="cls-2" d="M1105.45,118.91c-19.1,3.1-34.4,11.2-50.5,26.9l-5.8,5.6V124h-83v8.5c0,4.7-.2,8.5-0.5,8.5a65.56,65.56,0,0,1-7.3-3.4c-3.7-1.8-11-4.9-16.2-6.9-22.1-8.4-39.4-11.7-61.8-11.7-23.9,0-39.5,3.1-55.7,11-19,9.2-31.1,22.8-37.2,41.5-3.4,10.8-4.3,29.7-1.9,40.6,4.3,19.4,16.2,33.4,37,43.8,10.7,5.2,18.2,8,35.6,13,8,2.3,20,6,26.7,8.2,14.5,4.8,17.3,7,17.3,13.6,0,8.2-5.8,11.3-21.6,11.3-18.1,0-34.6-4.7-60.7-17.3-9.9-4.7-17.1-7.7-17.6-7.1-1.8,2-28.4,45.7-28.8,47.4-1,3.7,29,19.8,49,26.4,17.7,5.8,29.7,7.8,50.8,8.3,29.7,0.8,48-2.1,64.9-10.4,8-4,11-6.1,18.8-13.9l9.2-9.2V461h83V328.71l7.3,6.9c8.6,8.4,14.2,12.3,24,16.9,11.1,5.3,17.7,6.7,33.1,7.2,21.6,0.8,37.1-2.6,53.2-11.8,9.3-5.3,22.6-17.6,30.4-28.1l5.7-7.6,4.8,9.6c6.6,13.5,16.1,22.8,29.5,29.4,11.1,5.4,19.2,7.6,32.8,8.7,14.4,1.3,28.7-.3,40.4-4.3,11.3-3.8,18.3-7.8,27.9-15.9l6.9-5.7v9.2c0,5.1.4,9.9,0.8,10.6,1.1,1.6,1.7,1.6,44.5,1.4l36.7-.2v-59.4l5.8,9.4c7,11.5,21.5,26.6,32.6,34,41.2,27.5,96.4,29.4,138.1,4.7,9.3-5.4,24.9-19.4,29.9-26.6l2.8-4,5.8,6.9c15,17.4,37.4,30.7,61.5,36.6,22.9,5.5,50.3,5.5,72-.1,12.7-3.3,29.7-11.5,40-19.2,7.9-5.9,24.5-22.2,24.5-23.9-0.1-1-43-36.6-44.8-37.2-0.6-.2-4.8,2.6-9.3,6.2-22.7,17.9-46.2,21.3-69.4,9.9-9.1-4.4-18.4-16.2-21-26.6L1695,263h153l0.6-2.4c0.5-2.2-.7-27.5-2-40.1-1.8-17.6-7.8-36.4-16.3-50.9-5.7-9.9-19.6-24.6-29.6-31.5-31.7-22-79.5-26.2-116.2-10.3-13.5,5.8-22.5,12.2-36.2,26l-12.5,12.4-2-2.9c-3.7-5.2-17-18.5-23.6-23.5-8.9-6.8-24.6-14.3-36.5-17.4-20-5.2-51.8-4.3-74.2,2.2-29.5,8.5-53.7,28.4-70,57.3l-4.7,8.3-2.6-8.3c-7.4-23.5-20.2-38.5-41.5-48.9-28.5-14-73.7-17-118.1-8-12.9,2.6-42.4,12-42.4,13.5s16.1,56.8,16.7,57.5c0.2,0.2,4.7-1,10.1-2.7,21.3-6.9,34.4-9.3,51.2-9.3,14.5,0,23.9,1.8,31.1,5.7,9.5,5.1,15.3,14.5,16.5,26.7,0.7,6.5.6,6.9-1.2,6.2-4.6-1.8-22-5.5-30.8-6.6-12.7-1.6-43.5-.8-53.6,1.5a95,95,0,0,0-30.4,12.5c-8.8,5.7-7.8,6.6-9.6-9-3.6-30.7-14.7-55.8-32.4-73.6-12.4-12.3-30.1-22.4-46.6-26.4C1131.65,118.71,1113.45,117.71,1105.45,118.91Zm-139.3,83.3v42.3l-3.3-3.7c-11.2-12.6-25.3-19.7-66-32.9-28.7-9.4-31.5-10.5-34.9-13.9-4.7-4.6-4.9-8-1-12,2.9-2.9,10.1-5,17.1-5,6.3,0,20.5,2.8,30.7,6.1,9.2,2.9,30.6,12.1,33.1,14.1a2.61,2.61,0,0,0,2.5.5c0.7-.3,5.8-8.9,11.3-19.1s10.1-18.6,10.3-18.6S966.15,179,966.15,202.21Zm658.9-15.3c-7.4,17.7-10.4,35.9-9.6,59,0.6,17.6,2.4,28.3,7.1,42,1.4,4.1,2.5,7.5,2.3,7.6s-9.1-6.2-20-14.1L1585,267l-8.2,7.8c-12.6,11.8-22.3,16.2-35.8,16.2-12.6,0-25.6-6-33.3-15.3-7.1-8.7-12.6-24.4-12.6-36.2,0-19.2,11.4-39.2,26.3-46.4,18.7-9.1,38.1-4.9,54,11.8l7.6,8,19.3-14.2c23-16.9,25.3-18.6,25.5-18.7,0,0-1.2,3.1-2.8,6.9h0Zm123-4c5.7,3,13.6,10.4,16.8,15.9,2.7,4.5,6.3,15.1,6.3,18.3,0,1.8-1.3,1.9-38.5,1.9-43.8,0-39.9,1-36.9-9.1,2.3-7.8,5-12.5,10.1-18,8.7-9.3,15.5-12,28.8-11.6,7,0.3,10,.8,13.4,2.6h0Zm-641.9,6.8c19.8,5.4,31.9,22.1,33.7,46.4,1.6,22.3-8.7,41.4-27.2,50.5-25.7,12.7-55.2-2.4-62.9-32.3a75.19,75.19,0,0,1-1.6-15.7c0-16.5,5.4-29.3,16.8-39.8,11.7-10.6,24.9-13.6,41.2-9.1h0Zm226,67.8c6.9,1.4,13.1,3.2,13.9,3.9,2.2,2.2,0,20.9-3.2,27.2a37.92,37.92,0,0,1-17.2,16.1c-5.4,2.5-7.1,2.8-16.5,2.8-9.2-.1-11.2-0.4-16.1-2.7-10.9-5-15.5-16.8-11.8-30.3,1.6-5.8,9.9-13.6,17.1-16.3,5.8-2.2,17-4.2,19.8-3.6,0.8,0.2,7.1,1.5,14,2.9h0Z" transform="translate(0 -0.02)"/><path class="cls-1" d="M202.65,130.51c-21.3,3.9-37.4,14.2-53.2,34l-3.2,4-0.1-17.3V134h-34V355h33.9l0.4-70.8c0.3-78.5,0-74.2,7.3-89.2,5.2-10.6,17.3-22.6,27.5-27.5a95.32,95.32,0,0,1,13.9-5.1c8.6-2.3,25.4-2.3,33.9,0,14.9,3.9,27.9,14.3,34.5,27.7,7.3,15,7,11.4,7.6,91.6,0.3,39.7.8,72.4,1.2,72.8s7.7,0.7,16.4.7c12.1,0,15.8-.3,16.5-1.3,1.3-2,1.1-133.1-.2-146.8-1.4-15-3.9-24.7-9.3-35.6-6.9-13.8-15.6-23.2-29-31.3C251.25,130.81,223.55,126.61,202.65,130.51Z" transform="translate(0 -0.02)"/><path class="cls-1" d="M423.35,130.11a93,93,0,0,0-27.7,10.1c-4.8,2.7-10.6,7.7-18.2,15.5l-11.3,11.5V134h-35v109.2c0,60.1.4,109.9,0.9,110.7,0.6,1,4.5,1.3,16.5,1.3,8.6,0.1,16-.2,16.4-0.6s0.9-32.6,1.2-71.4l0.5-70.7,2.8-8c7.2-20.2,21.8-34.9,41.1-41.1,6.7-2.2,10-2.6,19.6-2.7,31.2-.1,50.1,13.8,58.2,43,2.2,7.6,2.2,9.2,2.6,79.5l0.3,71.8h33.9v-74.9c0-81.7-.1-83.8-5.8-99.9a70,70,0,0,0-16.1-26.4c-10.2-10.9-21.8-17.8-37.1-21.9C457.45,129.51,432.25,128.51,423.35,130.11Z" transform="translate(0 -0.02)"/><path class="cls-1" d="M635.65,130.11c-14.4,2.1-30.4,7.7-41.8,14.6-9.8,5.8-16.6,11.4-25.7,21-13,13.7-21.8,29.9-27.2,50.2-2.8,10.8-3.6,38.1-1.4,50.6,11.6,66.9,76.3,107.2,144.1,90,54.1-13.7,90.7-67.3,84.6-123.8-5.1-46.9-33.5-83.2-76.7-97.6C675.15,129.61,652.85,127.61,635.65,130.11Zm35.8,31.9a79,79,0,0,1,38.9,22.9c15,16.3,22.8,36.7,22.8,59.3,0,26.3-7.5,45.2-24.5,62.4-8,8.1-10.3,9.7-19.5,14.2-13.8,6.6-21.7,8.5-35.5,8.5-36.8-.2-67.6-24.3-77.6-60.8-1.9-6.8-2.2-10.7-2.3-25.5,0-17.1,0-17.7,3.2-27,10.1-30.1,34.5-51.2,64.7-55.9C649.55,158.81,662.55,159.71,671.45,162Z" transform="translate(0 -0.02)"/><path class="cls-1" d="M29.65,135.21c-0.3.7-.4,73.5-0.3,161.8l0.3,160.5,2.5,1c1.7,0.8,139.5,1,454.3.7l451.7-.4V425h-874V134h-17C34.45,134,30,134.31,29.65,135.21Z" transform="translate(0 -0.02)"/></svg>